<svg width="2028" height="486" viewBox="0 0 2028 486" fill="none" xmlns="http://www.w3.org/2000/svg">
<path d="M265 291H365V391C309.772 391 265 346.228 265 291Z" fill="black"/>
<path d="M381 226C381 198.386 403.386 176 431 176C458.614 176 481 198.386 481 226V276H381V226Z" fill="black"/>
<path d="M265 176C320.228 176 365 220.772 365 276H265V176Z" fill="black"/>
<path d="M498.5 276C498.5 220.772 543.272 176 598.5 176V276H498.5Z" fill="black"/>
<path d="M497 291H597C597 346.228 552.228 391 497 391V291Z" fill="black"/>
<path d="M381 291H481V391H381V291Z" fill="black"/>
<path d="M203.274 191.108C203.274 191.108 200.928 189.728 196.236 186.968C191.544 184.208 185.334 181.172 177.606 177.86C169.878 174.272 161.46 171.098 152.352 168.338C143.244 165.578 134.274 164.198 125.442 164.198C118.542 164.198 112.884 165.302 108.468 167.51C104.052 169.718 101.844 173.444 101.844 178.688C101.844 183.656 104.052 187.658 108.468 190.694C112.884 193.73 119.094 196.49 127.098 198.974C135.378 201.458 145.176 204.494 156.492 208.082C174.708 213.602 190.44 219.95 203.688 227.126C216.936 234.302 227.148 243.548 234.324 254.864C241.5 265.904 245.088 280.67 245.088 299.162C245.088 316.826 241.914 331.73 235.566 343.874C229.218 355.742 220.662 365.264 209.898 372.44C199.134 379.616 187.128 384.86 173.88 388.172C160.632 391.208 147.108 392.726 133.308 392.726C119.232 392.726 104.466 391.346 89.01 388.586C73.83 385.55 59.064 381.548 44.712 376.58C30.36 371.336 17.25 365.264 5.382 358.364L40.158 287.57C40.158 287.57 42.918 289.226 48.438 292.538C53.958 295.85 61.272 299.576 70.38 303.716C79.488 307.856 89.562 311.582 100.602 314.894C111.918 318.206 123.234 319.862 134.55 319.862C143.382 319.862 149.454 318.758 152.766 316.55C156.354 314.066 158.148 310.892 158.148 307.028C158.148 301.232 155.112 296.816 149.04 293.78C142.968 290.468 134.964 287.432 125.028 284.672C115.368 281.636 104.604 278.186 92.736 274.322C75.624 268.526 61.548 262.04 50.508 254.864C39.468 247.412 31.326 238.718 26.082 228.782C20.838 218.57 18.216 206.288 18.216 191.936C18.216 170.132 23.322 151.916 33.534 137.288C43.746 122.66 57.132 111.62 73.692 104.168C90.528 96.44 108.606 92.576 127.926 92.576C142.278 92.576 156.078 94.37 169.326 97.958C182.85 101.27 195.408 105.41 207 110.378C218.868 115.346 229.218 120.038 238.05 124.454L203.274 191.108ZM614.635 323.174C614.635 308.546 618.637 295.712 626.641 284.672C634.645 273.356 645.685 264.524 659.761 258.176C674.113 251.828 690.397 248.654 708.613 248.654C717.169 248.654 725.173 249.344 732.625 250.724C740.353 252.104 746.977 254.174 752.497 256.934V250.31C752.497 240.098 749.461 232.508 743.389 227.54C737.593 222.572 728.071 220.088 714.823 220.088C702.679 220.088 691.225 222.158 680.461 226.298C669.973 230.162 658.933 235.958 647.341 243.686L624.571 194.834C639.199 185.45 654.517 178.55 670.525 174.134C686.809 169.442 704.197 167.096 722.689 167.096C757.189 167.096 783.823 174.962 802.591 190.694C821.635 206.15 831.157 229.196 831.157 259.832V302.06C831.157 309.512 832.261 314.756 834.469 317.792C836.677 320.552 840.541 322.208 846.061 322.76V389C839.713 390.38 833.641 391.346 827.845 391.898C822.325 392.726 817.357 393.14 812.941 393.14C798.865 393.14 788.101 390.656 780.649 385.688C773.473 380.444 768.781 372.854 766.573 362.918L764.917 355.052C755.257 367.472 744.079 376.994 731.383 383.618C718.687 389.966 705.163 393.14 690.811 393.14C676.459 393.14 663.487 390.104 651.895 384.032C640.303 377.96 631.195 369.68 624.571 359.192C617.947 348.428 614.635 336.422 614.635 323.174ZM742.147 328.556C745.183 326.348 747.667 324.002 749.599 321.518C751.531 318.758 752.497 315.998 752.497 313.238V297.092C748.081 295.436 742.975 294.056 737.179 292.952C731.659 291.848 726.691 291.296 722.275 291.296C712.891 291.296 704.887 293.642 698.263 298.334C691.915 303.026 688.741 308.96 688.741 316.136C688.741 320 689.845 323.588 692.053 326.9C694.261 329.936 697.297 332.42 701.161 334.352C705.025 336.008 709.441 336.836 714.409 336.836C719.101 336.836 723.931 336.146 728.899 334.766C734.143 333.11 738.559 331.04 742.147 328.556ZM953.963 389C939.887 389 926.915 386.24 915.047 380.72C903.455 375.2 893.519 367.472 885.239 357.536C876.959 347.6 870.473 336.008 865.781 322.76C861.365 309.512 859.157 295.16 859.157 279.704C859.157 263.42 861.641 248.516 866.609 234.992C871.577 221.192 878.477 209.186 887.309 198.974C896.417 188.762 907.181 180.896 919.601 175.376C932.021 169.856 945.683 167.096 960.587 167.096C976.043 167.096 989.705 170.27 1001.57 176.618C1013.72 182.69 1023.24 191.66 1030.14 203.528V171.236H1098.45V369.128C1098.45 391.76 1092.93 411.494 1081.89 428.33C1070.85 445.166 1055.39 458.138 1035.52 467.246C1015.65 476.63 992.465 481.322 965.969 481.322C943.061 481.322 922.913 477.734 905.525 470.558C888.413 463.382 873.233 453.032 859.985 439.508L901.385 396.452C909.389 403.904 918.911 410.114 929.951 415.082C941.267 420.326 953.273 422.948 965.969 422.948C975.629 422.948 984.461 421.154 992.465 417.566C1000.74 413.978 1007.37 408.182 1012.34 400.178C1017.3 392.45 1019.79 382.1 1019.79 369.128V355.052C1013.72 366.368 1004.61 374.924 992.465 380.72C980.597 386.24 967.763 389 953.963 389ZM982.115 326.9C985.979 326.9 989.567 326.486 992.879 325.658C996.467 324.554 999.779 323.174 1002.81 321.518C1005.85 319.586 1008.75 317.24 1011.51 314.48C1014.54 311.444 1017.3 308.132 1019.79 304.544V265.628C1017.3 259.004 1013.85 253.346 1009.44 248.654C1005.02 243.686 1000.19 239.96 994.949 237.476C989.705 234.716 984.323 233.336 978.803 233.336C973.283 233.336 968.039 234.578 963.071 237.062C958.379 239.546 954.239 243.134 950.651 247.826C947.063 252.242 944.303 257.348 942.371 263.144C940.439 268.94 939.473 275.15 939.473 281.774C939.473 288.398 940.439 294.47 942.371 299.99C944.579 305.51 947.615 310.34 951.479 314.48C955.343 318.344 959.897 321.38 965.141 323.588C970.385 325.796 976.043 326.9 982.115 326.9ZM1280.8 393.14C1265.07 393.14 1251.41 390.104 1239.81 384.032C1228.22 377.684 1219.25 368.576 1212.9 356.708V477.182H1134.24V171.236H1202.55V203.942C1210.28 192.074 1219.8 182.966 1231.12 176.618C1242.71 170.27 1256.65 167.096 1272.93 167.096C1287.56 167.096 1300.95 169.856 1313.09 175.376C1325.24 180.896 1335.86 188.762 1344.97 198.974C1354.08 209.186 1361.12 221.054 1366.08 234.578C1371.05 248.102 1373.54 263.006 1373.54 279.29C1373.54 301.094 1369.53 320.552 1361.53 337.664C1353.53 354.776 1342.49 368.3 1328.41 378.236C1314.61 388.172 1298.74 393.14 1280.8 393.14ZM1253.48 326.9C1259.27 326.9 1264.52 325.658 1269.21 323.174C1274.18 320.69 1278.45 317.24 1282.04 312.824C1285.63 308.408 1288.39 303.302 1290.32 297.506C1292.25 291.71 1293.22 285.5 1293.22 278.876C1293.22 271.976 1292.12 265.766 1289.91 260.246C1287.98 254.726 1285.08 250.034 1281.21 246.17C1277.35 242.03 1272.8 238.856 1267.55 236.648C1262.31 234.44 1256.51 233.336 1250.16 233.336C1246.58 233.336 1242.99 233.888 1239.4 234.992C1236.09 235.82 1232.91 237.2 1229.88 239.132C1226.84 240.788 1223.81 242.996 1220.77 245.756C1218.01 248.516 1215.39 251.828 1212.9 255.692V293.366C1215.39 299.714 1218.7 305.51 1222.84 310.754C1227.26 315.722 1232.09 319.724 1237.33 322.76C1242.57 325.52 1247.96 326.9 1253.48 326.9ZM1505.38 393.14C1486.06 393.14 1468.95 390.104 1454.04 384.032C1439.14 377.96 1426.58 369.68 1416.37 359.192C1406.43 348.428 1398.84 336.284 1393.6 322.76C1388.63 309.236 1386.15 295.022 1386.15 280.118C1386.15 265.214 1388.63 251 1393.6 237.476C1398.84 223.676 1406.43 211.532 1416.37 201.044C1426.58 190.556 1439.14 182.276 1454.04 176.204C1468.95 170.132 1486.06 167.096 1505.38 167.096C1524.97 167.096 1542.09 170.132 1556.71 176.204C1571.62 182.276 1584.04 190.556 1593.97 201.044C1604.19 211.532 1611.78 223.676 1616.74 237.476C1621.99 251 1624.61 265.214 1624.61 280.118C1624.61 295.022 1621.99 309.236 1616.74 322.76C1611.78 336.284 1604.19 348.428 1593.97 359.192C1584.04 369.68 1571.62 377.96 1556.71 384.032C1542.09 390.104 1524.97 393.14 1505.38 393.14ZM1466.88 280.118C1466.88 289.778 1468.53 298.196 1471.84 305.372C1475.16 312.272 1479.71 317.654 1485.51 321.518C1491.3 325.106 1497.93 326.9 1505.38 326.9C1512.83 326.9 1519.45 325.106 1525.25 321.518C1531.05 317.654 1535.6 312.272 1538.91 305.372C1542.22 298.196 1543.88 289.778 1543.88 280.118C1543.88 270.458 1542.22 262.178 1538.91 255.278C1535.6 248.102 1531.05 242.72 1525.25 239.132C1519.45 235.268 1512.83 233.336 1505.38 233.336C1497.93 233.336 1491.3 235.268 1485.51 239.132C1479.71 242.72 1475.16 248.102 1471.84 255.278C1468.53 262.178 1466.88 270.458 1466.88 280.118ZM1755.54 393.14C1736.22 393.14 1719.11 390.104 1704.21 384.032C1689.3 377.96 1676.74 369.68 1666.53 359.192C1656.6 348.428 1649.01 336.284 1643.76 322.76C1638.79 309.236 1636.31 295.022 1636.31 280.118C1636.31 265.214 1638.79 251 1643.76 237.476C1649.01 223.676 1656.6 211.532 1666.53 201.044C1676.74 190.556 1689.3 182.276 1704.21 176.204C1719.11 170.132 1736.22 167.096 1755.54 167.096C1775.14 167.096 1792.25 170.132 1806.88 176.204C1821.78 182.276 1834.2 190.556 1844.14 201.044C1854.35 211.532 1861.94 223.676 1866.91 237.476C1872.15 251 1874.77 265.214 1874.77 280.118C1874.77 295.022 1872.15 309.236 1866.91 322.76C1861.94 336.284 1854.35 348.428 1844.14 359.192C1834.2 369.68 1821.78 377.96 1806.88 384.032C1792.25 390.104 1775.14 393.14 1755.54 393.14ZM1717.04 280.118C1717.04 289.778 1718.7 298.196 1722.01 305.372C1725.32 312.272 1729.87 317.654 1735.67 321.518C1741.47 325.106 1748.09 326.9 1755.54 326.9C1762.99 326.9 1769.62 325.106 1775.41 321.518C1781.21 317.654 1785.76 312.272 1789.08 305.372C1792.39 298.196 1794.04 289.778 1794.04 280.118C1794.04 270.458 1792.39 262.178 1789.08 255.278C1785.76 248.102 1781.21 242.72 1775.41 239.132C1769.62 235.268 1762.99 233.336 1755.54 233.336C1748.09 233.336 1741.47 235.268 1735.67 239.132C1729.87 242.72 1725.32 248.102 1722.01 255.278C1718.7 262.178 1717.04 270.458 1717.04 280.118ZM1896.82 86.78H1975.48V302.474C1975.48 310.478 1977.14 316.688 1980.45 321.104C1984.04 325.244 1989.14 327.314 1995.77 327.314C1999.08 327.314 2002.67 326.762 2006.53 325.658C2010.4 324.554 2013.98 323.036 2017.3 321.104L2027.23 379.064C2017.85 383.48 2007.22 386.93 1995.35 389.414C1983.76 391.898 1972.72 393.14 1962.23 393.14C1941.26 393.14 1925.11 387.758 1913.8 376.994C1902.48 365.954 1896.82 350.36 1896.82 330.212V86.78Z" fill="black"/>
</svg>
